<svg width="368" height="367" viewBox="0 0 368 367" fill="none" xmlns="http://www.w3.org/2000/svg">
<path fill-rule="evenodd" clip-rule="evenodd" d="M184.232 366.773C285.514 366.773 367.619 284.668 367.619 183.387C367.619 82.105 285.514 0 184.232 0C82.9507 0 0.845703 82.105 0.845703 183.387C0.845703 284.668 82.9507 366.773 184.232 366.773ZM184.234 343.559C272.695 343.559 344.407 271.847 344.407 183.386C344.407 94.9249 272.695 23.213 184.234 23.213C95.7727 23.213 24.0608 94.9249 24.0608 183.386C24.0608 271.847 95.7727 343.559 184.234 343.559Z" fill="#370438"/>
<path fill-rule="evenodd" clip-rule="evenodd" d="M181.911 359.809C281.911 359.809 362.976 279.263 362.976 179.905C362.976 80.546 281.911 0 181.911 0C81.9114 0 0.845703 80.546 0.845703 179.905C0.845703 279.263 81.9114 359.809 181.911 359.809ZM186.553 343.559C280.143 343.559 356.012 269.769 356.012 178.743C356.012 87.7181 280.143 13.9276 186.553 13.9276C92.9641 13.9276 17.0949 87.7181 17.0949 178.743C17.0949 269.769 92.9641 343.559 186.553 343.559Z" fill="#3657AD"/>
<path fill-rule="evenodd" clip-rule="evenodd" d="M181.912 350.525C278.065 350.525 356.013 274.136 356.013 179.905C356.013 85.6749 278.065 9.28613 181.912 9.28613C85.7583 9.28613 7.81055 85.6749 7.81055 179.905C7.81055 274.136 85.7583 350.525 181.912 350.525ZM183.073 343.56C273.457 343.56 346.728 270.809 346.728 181.066C346.728 91.3228 273.457 18.5715 183.073 18.5715C92.6885 18.5715 19.4176 91.3228 19.4176 181.066C19.4176 270.809 92.6885 343.56 183.073 343.56Z" fill="url(#paint0_linear)"/>
<path d="M113.799 186.139C114.256 183.218 116.771 181.065 119.727 181.065H246.572C249.459 181.065 251.937 183.121 252.469 185.959L265.48 255.348H102.985L113.799 186.139Z" fill="#370438"/>
<path d="M26.3813 239.099H339.764L324.675 273.919H40.3094L26.3813 239.099Z" fill="#95AFBA"/>
<path d="M49.9392 251.256C49.2301 250.263 49.9398 248.884 51.1598 248.884H317.306C318.526 248.884 319.236 250.263 318.527 251.256L310.076 263.086C309.607 263.743 308.849 264.133 308.042 264.133H60.424C59.6167 264.133 58.859 263.743 58.3897 263.086L49.9392 251.256Z" stroke="#341B5B"/>
<path d="M113.799 162.925C114.256 160.005 116.771 157.852 119.727 157.852H246.572C249.459 157.852 251.937 159.908 252.469 162.746L265.48 232.135H102.985L113.799 162.925Z" fill="#341B5B"/>
<path d="M118.678 170.199C118.995 167.14 121.572 164.816 124.646 164.816H241.68C244.677 164.816 247.214 167.027 247.624 169.996L256.195 232.135H112.271L118.678 170.199Z" fill="#95AFBA"/>
<rect x="123.877" y="162.495" width="118.389" height="6.96405" rx="3.48202" fill="#B9E6DB"/>
<rect opacity="0.5" x="207.446" y="211.242" width="41.7843" height="13.9281" rx="1.5" fill="#341B5B"/>
<rect opacity="0.5" x="226.018" y="201.957" width="23.2135" height="6.96405" rx="1.5" fill="#341B5B"/>
<defs>
<linearGradient id="paint0_linear" x1="184.233" y1="9.28613" x2="184.233" y2="350.525" gradientUnits="userSpaceOnUse">
<stop stop-color="#372161"/>
<stop offset="1" stop-color="#B9E5DB"/>
</linearGradient>
</defs>
</svg>
