<svg width="994" height="290" viewBox="0 0 994 290" fill="none" xmlns="http://www.w3.org/2000/svg">
<path d="M958.187 157.242H663.144C661.487 157.242 660.144 158.585 660.144 160.242V240.598C660.144 241.156 660.3 241.703 660.593 242.177L688.852 287.825C689.398 288.709 690.363 289.246 691.402 289.246H954.93C957.07 289.246 958.522 287.068 957.699 285.092L932.711 225.122C931.888 223.146 933.34 220.968 935.481 220.968H971.223C972.88 220.968 974.223 219.625 974.223 217.968V173.278C974.223 172.482 973.907 171.719 973.345 171.157L960.308 158.12C959.746 157.558 958.983 157.242 958.187 157.242Z" fill="#341B5B"/>
<rect width="994" height="74" rx="3" fill="#3657AD"/>
<rect x="638.578" y="7.42969" width="345.881" height="4.6427" rx="2.32135" fill="#B9E6DB"/>
<rect x="787.145" y="19.0361" width="48.7483" height="46.427" rx="3" fill="#341B5B"/>
<rect x="791.787" y="23.6787" width="39.4629" height="16.2494" rx="1.5" fill="#3657AD"/>
<rect x="791.787" y="58.499" width="39.4629" height="4.6427" rx="2.32135" fill="#3657AD"/>
<rect x="796.429" y="26" width="32.4989" height="4.6427" rx="2.32135" fill="#B9E6DB"/>
</svg>
