<svg width="320" height="144" viewBox="0 0 320 144" fill="none" xmlns="http://www.w3.org/2000/svg">
<path d="M0.571289 64.8755C0.571289 59.5188 4.77134 55.1169 10.1238 54.9062C35.8343 53.8941 108.062 51.2628 160 51.437C211.169 51.6085 283.931 54.0285 309.826 54.9453C315.198 55.1356 319.428 59.5468 319.428 64.9223V121.524C319.428 126.899 315.197 131.31 309.825 131.501C283.873 132.424 210.868 134.861 160 135.009C108.361 135.158 35.9027 132.54 10.1302 131.535C4.77573 131.327 0.571289 126.924 0.571289 121.565L0.571289 64.8755Z" fill="#370438"/>
<rect x="152.286" y="23.1431" width="18" height="120.857" rx="2" fill="#370438"/>
<rect x="139.428" width="43.7143" height="36" rx="2" fill="#370438"/>
<path d="M8.28564 69.849C8.28564 65.5383 11.652 62.0059 15.9605 61.8677C39.0831 61.1259 109.585 59.0177 160 59.1543C209.673 59.2889 280.729 61.223 304.009 61.8937C308.33 62.0182 311.714 65.5566 311.714 69.8795V117.847C311.714 122.17 308.331 125.708 304.01 125.833C280.681 126.508 209.38 128.456 160 128.572C109.876 128.689 39.139 126.592 15.9632 125.856C11.6534 125.719 8.28564 122.186 8.28564 117.874L8.28564 69.849Z" fill="#3657AD"/>
<mask id="mask0" mask-type="alpha" maskUnits="userSpaceOnUse" x="8" y="59" width="304" height="70">
<path d="M8.28564 69.849C8.28564 65.5383 11.652 62.0059 15.9605 61.8677C39.0831 61.1259 109.585 59.0177 160 59.1543C209.673 59.2889 280.729 61.223 304.009 61.8937C308.33 62.0182 311.714 65.5566 311.714 69.8795V117.847C311.714 122.17 308.331 125.708 304.01 125.833C280.681 126.508 209.38 128.456 160 128.572C109.876 128.689 39.139 126.592 15.9632 125.856C11.6534 125.719 8.28564 122.186 8.28564 117.874L8.28564 69.849Z" fill="#3657AD"/>
</mask>
<g mask="url(#mask0)">
<path d="M158.714 41.1484H206.286L158.714 149.148H111.143L158.714 41.1484Z" fill="#568FE7"/>
<path d="M251.286 41.1484H265.429L217.857 149.148H203.714L251.286 41.1484Z" fill="#568FE7"/>
<path d="M138.143 41.1484H152.286L104.714 149.148H90.5713L138.143 41.1484Z" fill="#B9E6DB"/>
</g>
</svg>
