<svg width="768" height="1054" viewBox="0 0 768 1054" fill="none" xmlns="http://www.w3.org/2000/svg">
<path d="M766.268 618.307C766.268 616.794 765.141 615.517 763.64 615.33L531.08 586.252C530.161 586.137 529.347 585.605 528.874 584.81L490.535 520.394C489.994 519.485 489.014 518.928 487.957 518.928H473.691C472.435 518.928 471.312 519.711 470.877 520.889L435.35 617.111C434.915 618.29 433.792 619.072 432.535 619.072H306.634H3.59015C1.93329 619.072 0.590149 620.415 0.590149 622.072V709.388C0.590149 711.045 1.93329 712.388 3.59015 712.388H304.358H430.281C432.017 712.388 433.39 713.857 433.274 715.588L419.354 924.086C419.298 924.917 419.59 925.733 420.16 926.34L538.957 1052.82C539.534 1053.44 540.345 1053.78 541.189 1053.77L763.313 1050.42C764.952 1050.39 766.268 1049.06 766.268 1047.42V844.396V708.974V618.307Z" fill="#370438"/>
<path d="M523.936 670.282V690.597C523.936 692.14 524.649 693.596 525.867 694.544L608.126 758.511V780.668L520.523 710.112L517.11 699.87L523.936 670.282Z" fill="#3657AD"/>
<path d="M528.258 598.433L767.406 715.802V631.59L515.972 518.928H480.703L514.218 610.846C515.379 614.03 515.972 617.392 515.972 620.78V712.388H523.936V601.126C523.936 598.906 526.265 597.455 528.258 598.433Z" fill="#3657AD"/>
<path d="M520.985 708.014L697.984 845.522C698.715 846.09 699.143 846.965 699.143 847.891V963.895C699.143 966.306 696.442 967.732 694.451 966.372L512.125 841.854C510.466 840.721 508.184 841.507 507.574 843.422L493.092 888.927C492.26 891.541 488.646 891.76 487.505 889.265L465.307 840.744C464.967 840.001 464.945 839.151 465.246 838.392L516.355 709.279C517.091 707.42 519.405 706.787 520.985 708.014Z" fill="#341B5B"/>
<path d="M449.528 510.599L396.329 498.484C393.919 497.935 393.17 494.869 395.055 493.271L438.14 456.736C438.449 456.473 438.684 456.181 438.874 455.824C446.914 440.726 493.929 389.282 535.313 299.294C575.827 211.198 626.71 71.2442 649.201 6.25965C650.045 3.82115 653.368 3.51595 654.648 5.75653L746.039 165.732C746.586 166.689 746.564 167.869 745.981 168.805L571.168 449.707C570.79 450.314 570.642 451.037 570.749 451.744L580.551 516.014C580.718 517.107 581.473 518.021 582.516 518.39L765.406 583.087C766.605 583.511 767.406 584.644 767.406 585.915V654.328C767.406 656.488 765.192 657.94 763.21 657.08L456.857 523.994C456.102 523.666 455.514 523.042 455.233 522.268L451.682 512.499C451.333 511.541 450.522 510.826 449.528 510.599Z" fill="#370438"/>
<path opacity="0.5" d="M551.241 525.756L506.87 504.134L756.028 118.352V141.112L628.036 340.262L556.929 454.062L562.618 515.514L551.241 525.756Z" fill="#353984"/>
<path d="M497.769 475.684L726.448 89.9023L729.861 104.696L506.871 475.684H497.769Z" fill="#353984"/>
<path d="M512.559 476.822L740.101 110.386L738.963 125.18L517.11 476.822H512.559Z" fill="#353984"/>
<path d="M703.694 93.3162L479.565 498.444L460.251 473.758C459.539 472.849 459.395 471.648 459.908 470.614C482.268 425.492 529.848 329.335 547.828 292.466C566.031 255.14 629.743 92.5575 659.323 15.9321L703.694 93.3162Z" fill="#3657AD"/>
<path d="M752.615 642.97L498.575 529.91C496.591 529.027 494.356 530.479 494.356 532.651V532.912C494.356 534.097 495.053 535.171 496.136 535.653L752.615 649.798V642.97Z" fill="#B9E6DB"/>
</svg>
