<svg width="1232" height="172" viewBox="0 0 1232 172" fill="none" xmlns="http://www.w3.org/2000/svg">
<path d="M4.21031 171.321H1226.1C1228.17 171.321 1229.61 169.29 1228.94 167.341L1223.43 151.403C1201.16 86.9135 1140.43 43.6465 1072.2 43.6465H46.2432C44.9639 43.6465 43.8254 44.4577 43.4077 45.6669L1.37476 167.341C0.701665 169.29 2.1489 171.321 4.21031 171.321Z" fill="#341B5B"/>
<path d="M4.51892 164.366H1226.82C1228.95 164.366 1230.4 162.208 1229.6 160.234L1173.98 23.694C1173.53 22.5962 1172.69 21.8712 1171.51 21.8343C1145.46 21.0247 832.671 11.4547 613.847 11.893C397.031 12.3273 84.1833 27.9032 58.5778 29.1959C57.428 29.254 56.6144 29.9553 56.1675 31.0164L1.75412 160.202C0.921207 162.179 2.37322 164.366 4.51892 164.366Z" fill="#370438"/>
<path d="M60.3116 31.8631L47.7939 42.6034C47.7939 42.6034 398.347 24.7038 623.606 23.2579C842.023 21.8559 1177.8 35.7756 1177.8 35.7756L1161.87 33.0011C1052.62 25.0353 900.132 0 623.606 0C451.545 0 176.384 18.9661 60.3116 31.8631Z" fill="#353984"/>
<path d="M4.26245 168.967H1226.01C1228.1 168.967 1229.55 166.886 1228.82 164.927L1186.1 49.3468C1183.83 43.2183 1178.26 39.0887 1171.73 38.9135C1112.46 37.3234 817.836 29.7254 613.365 30.0987C396.864 30.4941 72.8382 44.6614 45.9013 45.8553C44.6852 45.9092 43.8374 46.6837 43.4266 47.8295L1.4384 164.954C0.737795 166.909 2.18634 168.967 4.26245 168.967Z" fill="#3657AD"/>
<path d="M505.257 42.6031V38.0513C566.708 39.1892 768.583 38.0513 988.894 38.0513C1046.2 38.0513 1101.37 39.6707 1129.72 42.0859C1167.55 42.0859 1182.35 114.295 1182.35 114.295C1182.35 114.295 1160.73 46.7245 1127.73 46.7245C1101.47 44.3036 1049.8 42.6031 997.998 42.6031H505.257Z" fill="#B9E6DB"/>
<path d="M505.257 135.503C505.257 133.846 506.6 132.503 508.257 132.503H805.145C805.937 132.503 806.698 132.817 807.26 133.376L816.176 142.244C816.742 142.807 817.061 143.573 817.061 144.371V145.434C817.061 147.091 815.718 148.434 814.061 148.434H508.257C506.6 148.434 505.257 147.091 505.257 145.434V135.503Z" fill="#B9E6DB"/>
<path d="M826.644 133.415C826.091 132.766 826.552 131.766 827.405 131.766L1168.8 131.766C1169.46 131.766 1170.11 131.987 1170.63 132.394L1182.72 141.759C1183.46 142.327 1183.89 143.203 1183.89 144.131V145.106C1183.89 146.763 1182.54 148.106 1180.89 148.106H840.552C839.673 148.106 838.839 147.721 838.269 147.053L826.644 133.415Z" fill="#B9E6DB"/>
<path opacity="0.5" d="M500.707 60.397C500.707 58.7401 502.05 57.397 503.707 57.397L1104.93 57.397C1109.35 57.397 1112.93 60.9787 1112.93 65.397V113.399C1112.93 118.922 1108.46 123.399 1102.93 123.399H503.707C502.05 123.399 500.707 122.056 500.707 120.399V60.397Z" fill="#341B5B"/>
<path opacity="0.5" d="M1172.31 113.062L1132.04 56.0156C1130.35 53.6242 1126.59 54.8185 1126.59 57.7456V115.675C1126.59 121.198 1131.07 125.675 1136.59 125.675H1165.77C1172.26 125.675 1176.05 118.361 1172.31 113.062Z" fill="#341B5B"/>
<path opacity="0.5" d="M150.558 57.7554C150.558 56.0985 149.215 54.7554 147.558 54.7554H117.047C107.81 54.7554 99.4697 60.2808 95.8678 68.786L76.0489 115.583C75.2112 117.561 76.6632 119.753 78.8114 119.753H147.558C149.215 119.753 150.558 118.41 150.558 116.753V57.7554Z" fill="#341B5B"/>
</svg>
