<svg width="383" height="297" viewBox="0 0 383 297" fill="none" xmlns="http://www.w3.org/2000/svg">
<path d="M305 147.856H357V240.29C357 243.82 358.554 247.171 361.249 249.451L383 267.856H305V147.856Z" fill="#370438"/>
<path d="M78 147.856H26V240.29C26 243.82 24.4459 247.171 21.7513 249.451L0 267.856H78V147.856Z" fill="#370438"/>
<rect x="77.1567" y="6" width="227.492" height="201.957" rx="3" fill="#341B5B"/>
<rect x="77.1567" y="161.531" width="227.492" height="134.638" rx="3" fill="#3657AD"/>
<rect x="74.1567" y="3" width="233.492" height="105.818" rx="6" fill="#3657AD" stroke="#370438" stroke-width="6"/>
<rect x="84" y="10.856" width="213" height="39" rx="3" fill="#370438"/>
<path d="M89 17.856C89 16.1991 90.3431 14.856 92 14.856H185C186.657 14.856 188 16.1991 188 17.856V41.856C188 43.5128 186.657 44.856 185 44.856H92C90.3431 44.856 89 43.5128 89 41.856V17.856Z" fill="#3657AD"/>
<path d="M93.1255 21.4707C93.1255 20.3661 94.0209 19.4707 95.1255 19.4707H181.876C182.98 19.4707 183.876 20.3661 183.876 21.4707V22.0861C183.876 23.1907 182.98 24.0861 181.876 24.0861H95.1255C94.0209 24.0861 93.1255 23.1907 93.1255 22.0861V21.4707Z" fill="#370438"/>
<path d="M93.1255 28.3945C93.1255 27.29 94.0209 26.3945 95.1255 26.3945H181.876C182.98 26.3945 183.876 27.29 183.876 28.3945V29.0099C183.876 30.1145 182.98 31.0099 181.876 31.0099H95.1255C94.0209 31.0099 93.1255 30.1145 93.1255 29.0099V28.3945Z" fill="#370438"/>
<path d="M93.1255 35.3174C93.1255 34.2128 94.0209 33.3174 95.1255 33.3174H181.876C182.98 33.3174 183.876 34.2128 183.876 35.3174V35.9328C183.876 37.0373 182.98 37.9328 181.876 37.9328H95.1255C94.0209 37.9328 93.1255 37.0373 93.1255 35.9328V35.3174Z" fill="#370438"/>
<path d="M93.1255 42.2407C93.1255 41.1362 94.0209 40.2407 95.1255 40.2407H181.876C182.98 40.2407 183.876 41.1362 183.876 42.2407V42.8561C183.876 43.9607 182.98 44.8561 181.876 44.8561H95.1255C94.0209 44.8561 93.1255 43.9607 93.1255 42.8561V42.2407Z" fill="#370438"/>
<path d="M142.121 30.7017C142.121 29.5971 143.016 28.7017 144.121 28.7017H154.508C155.612 28.7017 156.508 29.5971 156.508 30.7017V42.8555C156.508 43.9601 155.612 44.8555 154.508 44.8555H144.121C143.016 44.8555 142.121 43.9601 142.121 42.8555V30.7017Z" fill="#3657AD"/>
<path d="M146.951 33.0098C146.951 31.9052 147.847 31.0098 148.951 31.0098H149.68C150.784 31.0098 151.68 31.9052 151.68 33.0098V40.5482C151.68 41.6528 150.784 42.5482 149.68 42.5482H148.951C147.847 42.5482 146.951 41.6528 146.951 40.5482V33.0098Z" fill="#B9E6DB"/>
<rect x="84.1221" y="64.0332" width="213.564" height="23.2135" rx="3" fill="#341B5B"/>
<rect x="84.1221" y="168.494" width="213.564" height="55.7124" rx="3" fill="#370438"/>
<rect x="93.4077" y="177.779" width="194.993" height="37.1416" rx="3" fill="#341B5B"/>
<rect x="151.442" y="182.423" width="78.9259" height="11.6067" rx="1" fill="#370438"/>
<rect x="151.442" y="198.672" width="9.2854" height="11.6067" rx="1" fill="#3657AD"/>
<rect x="165.369" y="198.672" width="9.2854" height="11.6067" rx="1" fill="#3657AD"/>
<rect x="179.297" y="198.672" width="9.2854" height="11.6067" rx="1" fill="#3657AD"/>
<rect x="84.1221" y="245.099" width="46.427" height="44.1056" rx="3" fill="#341B5B"/>
<rect x="93.4077" y="173.138" width="194.993" height="2.32135" rx="1.16067" fill="#341B5B"/>
<rect x="93.4077" y="217.243" width="194.993" height="2.32135" rx="1.16067" fill="#341B5B"/>
<path d="M193 17.856C193 16.1991 194.343 14.856 196 14.856H289C290.657 14.856 292 16.1991 292 17.856V41.856C292 43.5128 290.657 44.856 289 44.856H196C194.343 44.856 193 43.5128 193 41.856V17.856Z" fill="#3657AD"/>
<path d="M197.125 21.4707C197.125 20.3661 198.021 19.4707 199.125 19.4707H285.876C286.98 19.4707 287.876 20.3661 287.876 21.4707V22.0861C287.876 23.1907 286.98 24.0861 285.876 24.0861H199.125C198.021 24.0861 197.125 23.1907 197.125 22.0861V21.4707Z" fill="#370438"/>
<path d="M197.125 28.3945C197.125 27.29 198.021 26.3945 199.125 26.3945H285.876C286.98 26.3945 287.876 27.29 287.876 28.3945V29.0099C287.876 30.1145 286.98 31.0099 285.876 31.0099H199.125C198.021 31.0099 197.125 30.1145 197.125 29.0099V28.3945Z" fill="#370438"/>
<path d="M197.125 35.3174C197.125 34.2128 198.021 33.3174 199.125 33.3174H285.876C286.98 33.3174 287.876 34.2128 287.876 35.3174V35.9328C287.876 37.0373 286.98 37.9328 285.876 37.9328H199.125C198.021 37.9328 197.125 37.0373 197.125 35.9328V35.3174Z" fill="#370438"/>
<path d="M197.125 42.2407C197.125 41.1362 198.021 40.2407 199.125 40.2407H285.876C286.98 40.2407 287.876 41.1362 287.876 42.2407V42.8561C287.876 43.9607 286.98 44.8561 285.876 44.8561H199.125C198.021 44.8561 197.125 43.9607 197.125 42.8561V42.2407Z" fill="#370438"/>
<path d="M246.121 30.7017C246.121 29.5971 247.016 28.7017 248.121 28.7017H258.508C259.612 28.7017 260.508 29.5971 260.508 30.7017V42.8555C260.508 43.9601 259.612 44.8555 258.508 44.8555H248.121C247.016 44.8555 246.121 43.9601 246.121 42.8555V30.7017Z" fill="#3657AD"/>
<path d="M250.951 33.0098C250.951 31.9052 251.847 31.0098 252.951 31.0098H253.68C254.784 31.0098 255.68 31.9052 255.68 33.0098V40.5482C255.68 41.6528 254.784 42.5482 253.68 42.5482H252.951C251.847 42.5482 250.951 41.6528 250.951 40.5482V33.0098Z" fill="#B9E6DB"/>
<rect x="84.1221" y="52.4272" width="213.564" height="4.6427" rx="2.32135" fill="#B9E6DB"/>
<path d="M142.155 235.813H294.686C296.343 235.813 297.686 237.157 297.686 238.813V242.099C297.686 243.756 296.343 245.099 294.686 245.099H142.155V235.813Z" fill="#B9E6DB"/>
<path d="M84.1221 235.813H122.342C123.138 235.813 123.901 236.13 124.464 236.692L127.749 239.978C129.639 241.867 128.3 245.099 125.628 245.099H84.1221V235.813Z" fill="#B9E6DB"/>
<rect x="84.1221" y="96.5322" width="213.564" height="4.6427" rx="2.32135" fill="#B9E6DB"/>
<rect x="93.4077" y="64.0332" width="32.4989" height="34.8202" rx="3" fill="#370438"/>
<rect x="98.0493" y="68.6772" width="23.2135" height="23.2135" rx="2" fill="#3657AD"/>
<rect x="135.192" y="68.6772" width="32.4989" height="30.1775" rx="3" fill="#370438"/>
<rect x="176.977" y="68.6772" width="32.4989" height="30.1775" rx="3" fill="#370438"/>
<rect x="218.76" y="68.6772" width="32.4989" height="30.1775" rx="3" fill="#370438"/>
<rect x="225.724" y="75.6411" width="18.5708" height="16.2494" rx="2" fill="#3657AD"/>
<rect x="230.366" y="77.9619" width="9.2854" height="4.6427" rx="2.32135" fill="#B9E6DB"/>
<rect x="183.939" y="75.6411" width="18.5708" height="16.2494" rx="2" fill="#3657AD"/>
<rect x="142.155" y="75.6411" width="18.5708" height="16.2494" rx="2" fill="#3657AD"/>
<rect x="188.583" y="77.9619" width="9.2854" height="4.6427" rx="2.32135" fill="#B9E6DB"/>
<rect x="146.797" y="77.9619" width="9.2854" height="4.6427" rx="2.32135" fill="#B9E6DB"/>
<rect x="102.692" y="73.3188" width="13.9281" height="4.6427" rx="2.32135" fill="#B9E6DB"/>
<rect x="88.7646" y="117.424" width="34.8202" height="34.8202" rx="17.4101" fill="#370438"/>
<rect x="93.4077" y="122.066" width="25.5348" height="25.5348" rx="12.7674" fill="#3657AD"/>
<path d="M142.155 136.15V131.031C142.155 129.926 143.05 129.031 144.155 129.031H258.222L144.314 138.143C143.151 138.236 142.155 137.317 142.155 136.15Z" fill="#176DE1"/>
<path d="M269.829 133.519V138.638C269.829 139.742 268.934 140.638 267.829 140.638H153.762L267.67 131.525C268.833 131.432 269.829 132.351 269.829 133.519Z" fill="#EB5757"/>
<rect x="128.228" y="142.958" width="157.852" height="6.96405" rx="3" fill="#370438"/>
<rect x="265.187" y="138.317" width="11.6067" height="18.5708" rx="2" fill="#341B5B"/>
<rect x="265.187" y="138.317" width="9.2854" height="16.2494" rx="2" fill="#B9E6DB"/>
<rect x="128.228" y="117.425" width="157.852" height="6.96405" rx="3" fill="#370438"/>
<rect x="135.19" y="112.782" width="11.6067" height="18.5708" rx="2" fill="#341B5B"/>
<rect x="135.19" y="112.782" width="9.2854" height="16.2494" rx="2" fill="#B9E6DB"/>
<rect x="91.0864" y="249.742" width="34.8202" height="34.8202" rx="17.4101" fill="#370438"/>
<rect x="95.728" y="254.384" width="25.5348" height="25.5348" rx="12.7674" fill="#3657AD"/>
<rect x="98.0493" y="256.706" width="20.8921" height="20.8921" rx="10.4461" fill="#370438"/>
<rect x="98.0493" y="184.744" width="20.8921" height="20.8921" rx="10.4461" fill="#3657AD"/>
</svg>
