<svg width="1948" height="243" viewBox="0 0 1948 243" fill="none" xmlns="http://www.w3.org/2000/svg">
<path d="M1994 240C1994 241.657 1992.66 243 1991 243L-43.0001 243C-44.6569 243 -46 241.657 -46 240V152.687V3.00001C-46 1.34315 -44.6569 1.01294e-05 -43 1.01294e-05H1991C1992.66 1.01294e-05 1994 1.34316 1994 3.00001V240Z" fill="#370438"/>
<path d="M1732.55 124.57H1720.97C1719.57 124.57 1718.35 125.54 1718.04 126.905L1703.19 192.248C1702.89 193.595 1703.54 194.978 1704.78 195.596L1716.92 201.665C1717.93 202.174 1718.57 203.212 1718.57 204.349V234.192C1718.57 235.246 1718.02 236.222 1717.12 236.765L1711.83 239.937C1711.06 240.396 1710.55 241.164 1710.41 242.045C1709.05 250.713 1704.7 277.367 1696.31 326.537C1687.61 377.465 1706.51 408.281 1717.77 418.098C1718.29 418.549 1718.95 418.774 1719.64 418.774H1740.84C1707.44 374.246 1718.57 347.211 1718.57 313.815C1718.57 287.541 1729.85 241.684 1735.77 221.012C1735.96 220.338 1735.91 219.636 1735.63 218.994L1725.29 195.349C1725.06 194.823 1724.98 194.242 1725.07 193.675L1735.51 128.042C1735.8 126.22 1734.4 124.57 1732.55 124.57Z" fill="#341B5B"/>
<path d="M1725.9 353.573C1725.9 325.584 1744.98 206.206 1754.52 150.016L1764.06 132.522C1756.11 188.183 1738.94 308.727 1733.85 345.621C1728.76 382.516 1746.57 409.763 1754.52 417.184H1738.62L1730.67 407.643L1740.21 404.462C1735.44 399.161 1725.9 381.562 1725.9 353.573Z" fill="#341B5B"/>
<path d="M697.083 177.483C710.599 178.013 738.646 178.756 742.701 177.483L717.427 188.973C716.356 189.46 715.668 190.528 715.668 191.704V306.044C715.668 307.701 717.011 309.044 718.668 309.044H746.46C748.117 309.044 749.46 310.388 749.46 312.044V377.608C749.46 379.264 748.117 380.608 746.46 380.608H702.474C702.259 380.608 702.046 380.63 701.837 380.676L662.782 389.159C660.648 389.622 658.75 387.724 659.213 385.59L673.429 320.176L653.348 380.03C653.22 380.411 653.016 380.763 652.75 381.064L646.15 388.519C645.289 389.491 643.9 389.799 642.708 389.281L624.546 381.392C623.45 380.916 622.741 379.835 622.741 378.64V376.969C622.741 373.333 617.485 372.83 616.796 376.4L616.191 379.53C616.057 380.226 615.681 380.852 615.129 381.296L604.98 389.484C604.447 389.915 603.782 390.149 603.097 390.149H579.764C579.145 390.149 578.54 389.957 578.034 389.6L567.168 381.929C566.062 381.149 565.616 379.725 566.078 378.454L587.26 320.176L550.917 393.256C550.41 394.276 549.369 394.92 548.231 394.92H276.29C274.522 394.92 273.138 393.4 273.303 391.64L282.878 289.5C283.022 287.959 284.316 286.78 285.865 286.78H337.199H420.003C421.044 286.78 422.011 286.241 422.557 285.354L467.302 212.742C468.638 210.573 471.9 210.952 472.703 213.37L478.442 230.656C478.849 231.883 479.996 232.71 481.289 232.71H558.7C559.658 232.71 560.558 232.253 561.123 231.48L578.232 208.056C578.607 207.543 578.809 206.923 578.809 206.287V180.483C578.809 178.827 577.466 177.483 575.809 177.483H697.083Z" fill="#341B5B"/>
<path opacity="0.5" d="M1177.07 3.70508C1177.07 2.04823 1178.41 0.705078 1180.07 0.705078H1736.63C1738.87 0.705078 1740.32 3.0768 1739.3 5.07309L1669.23 141.811C1668.72 142.813 1667.69 143.443 1666.56 143.443H1177.07V3.70508Z" fill="#341B5B"/>
<path d="M1177.07 188.858H1712.58C1714.24 188.858 1715.58 190.202 1715.58 191.858V202.079C1715.58 203.735 1714.24 205.079 1712.58 205.079H1177.07V188.858Z" fill="#3657AD"/>
<path d="M224.453 164.326H193.48C199.311 187.65 213.2 247.657 222.105 301.091C231.011 354.525 218.395 404.99 210.973 423.544H222.105C225.286 412.412 232.283 385.377 234.828 366.293C237.372 347.21 233.767 294.73 231.647 270.876C232.707 278.827 235.464 304.272 238.008 342.439C240.553 380.606 231.647 412.412 226.876 423.544L250.73 402.87C253.381 385.377 257.728 342.121 253.911 309.043C250.179 276.695 234.989 202.169 227.38 166.67C227.083 165.288 225.867 164.326 224.453 164.326Z" fill="#341B5B"/>
</svg>
