<svg width="335" height="144" viewBox="0 0 335 144" fill="none" xmlns="http://www.w3.org/2000/svg">
<path d="M0 7.99999C0 3.58171 3.58172 0 8 0H326.563C330.981 0 334.563 3.58172 334.563 8V131.28C334.563 132.937 333.22 134.28 331.563 134.28H3C1.34314 134.28 0 132.937 0 131.28V7.99999Z" fill="url(#paint0_linear)"/>
<path opacity="0.3" d="M12.2812 23.8394C12.2812 20.5257 14.9675 17.8394 18.2812 17.8394H308.057C311.37 17.8394 314.057 20.5256 314.057 23.8394V137.192C314.057 140.506 311.37 143.192 308.057 143.192H18.2812C14.9675 143.192 12.2812 140.506 12.2812 137.192V23.8394Z" fill="#370438"/>
<rect x="51.7456" y="64.2671" width="222.85" height="69.6405" rx="3" fill="#370438"/>
<path opacity="0.5" d="M31.9201 31.8687C30.5018 29.8831 31.9212 27.125 34.3613 27.125H291.979C294.419 27.125 295.838 29.8831 294.42 31.8687L275.492 58.3676C274.929 59.156 274.02 59.6239 273.051 59.6239H53.2891C52.3202 59.6239 51.411 59.156 50.8479 58.3676L31.9201 31.8687Z" fill="#370438"/>
<path opacity="0.5" d="M281.558 67.6595C281.558 67.2069 281.661 66.7601 281.858 66.3527L299.071 30.781C300.459 27.9124 304.772 28.9009 304.772 32.0877V130.908C304.772 132.565 303.428 133.908 301.772 133.908H284.558C282.901 133.908 281.558 132.565 281.558 130.908V67.6595Z" fill="#370438"/>
<path opacity="0.5" d="M44.7808 67.6595C44.7808 67.2069 44.6784 66.7601 44.4812 66.3527L27.2677 30.781C25.8796 27.9124 21.5673 28.9009 21.5673 32.0877V130.908C21.5673 132.565 22.9104 133.908 24.5673 133.908H41.7808C43.4376 133.908 44.7808 132.565 44.7808 130.908V67.6595Z" fill="#370438"/>
<rect x="21.5679" y="6.2334" width="285.526" height="4.6427" rx="2.32135" fill="#B9E6DB"/>
<defs>
<linearGradient id="paint0_linear" x1="167.281" y1="0" x2="167.281" y2="134.28" gradientUnits="userSpaceOnUse">
<stop stop-color="#3657AD"/>
<stop offset="1" stop-color="#3657AD"/>
</linearGradient>
</defs>
</svg>
